<svg xmlns="http://www.w3.org/2000/svg" width="192" height="192">
<rect width="192" height="192" fill="#2c3e50"/>
<g fill="#f4d03f">
  <rect x="20" y="40" width="50" height="120"/>
  <rect x="122" y="40" width="50" height="120"/>
</g>
<g fill="#ecf0f1">
  <rect x="28" y="50" width="10" height="12"/>
  <rect x="48" y="50" width="10" height="12"/>
  <rect x="28" y="75" width="10" height="12"/>
  <rect x="48" y="75" width="10" height="12"/>
  <rect x="28" y="100" width="10" height="12"/>
  <rect x="48" y="100" width="10" height="12"/>
  <rect x="130" y="50" width="10" height="12"/>
  <rect x="150" y="50" width="10" height="12"/>
  <rect x="130" y="75" width="10" height="12"/>
  <rect x="150" y="75" width="10" height="12"/>
  <rect x="130" y="100" width="10" height="12"/>
  <rect x="150" y="100" width="10" height="12"/>
</g>
<rect x="70" y="100" width="52" height="60" fill="#34495e"/>
</svg>